M48
; DRILL file {KiCad 5.1.9-73d0e3b20d~88~ubuntu20.04.1} date Fri Jan 15 18:11:22 2021
; FORMAT={-:-/ absolute / metric / decimal}
; #@! TF.CreationDate,2021-01-15T18:11:22+02:00
; #@! TF.GenerationSoftware,Kicad,Pcbnew,5.1.9-73d0e3b20d~88~ubuntu20.04.1
; #@! TF.FileFunction,Plated,1,2,PTH
FMAT,2
METRIC
T1C0.308
T2C0.400
T3C1.000
T4C1.500
T5C1.700
T6C3.200
%
G90
G05
T1
X33.782Y21.59
X36.068Y22.606
X36.068Y20.574
X39.624Y22.606
X39.624Y20.574
X41.91Y21.59
X53.086Y21.59
X55.372Y22.606
X55.372Y20.574
X58.928Y22.606
X58.928Y20.574
X61.214Y21.59
X63.246Y21.59
X65.532Y22.606
X65.532Y20.574
X69.088Y22.606
X69.088Y20.574
X71.374Y21.59
X73.406Y21.59
X75.692Y22.606
X75.692Y20.574
X79.248Y22.606
X79.248Y20.574
X81.534Y21.59
X83.566Y21.59
X85.852Y40.132
X85.852Y36.576
X85.852Y22.606
X85.852Y20.574
X86.868Y42.418
X86.868Y34.29
X87.884Y40.132
X87.884Y36.576
X89.408Y22.606
X89.408Y20.574
X91.694Y21.59
X93.726Y21.59
X96.012Y22.606
X96.012Y20.574
X97.028Y40.132
X97.028Y36.576
X98.044Y42.418
X98.044Y34.29
X99.06Y40.132
X99.06Y36.576
X99.568Y22.606
X99.568Y20.574
X101.854Y21.59
X103.886Y21.59
X106.172Y22.606
X106.172Y20.574
X109.728Y22.606
X109.728Y20.574
X112.014Y21.59
X114.046Y21.59
X116.332Y22.606
X116.332Y20.574
X119.888Y22.606
X119.888Y20.574
X122.174Y21.59
X124.206Y21.59
X126.492Y22.606
X126.492Y20.574
X130.048Y22.606
X130.048Y20.574
X132.334Y21.59
T2
X1.397Y67.437
X1.397Y22.479
X1.524Y17.78
X1.524Y1.778
X2.286Y17.78
X2.54Y1.778
X7.291Y66.115
X8.382Y64.77
X8.382Y19.558
X9.908Y44.551
X9.978Y41.728
X10.057Y42.815
X10.274Y48.022
X10.319Y52.417
X10.414Y49.149
X11.43Y55.626
X11.684Y43.942
X12.192Y40.386
X12.192Y1.524
X13.208Y1.524
X19.431Y87.249
X19.558Y69.342
X19.685Y80.137
X20.574Y14.224
X20.955Y63.373
X22.733Y44.069
X23.495Y40.45
X23.876Y66.04
X24.638Y56.642
X25.4Y22.098
X25.4Y20.066
X26.924Y18.034
X26.924Y15.494
X26.924Y13.462
X28.194Y27.432
X29.464Y1.524
X29.718Y41.402
X29.972Y22.352
X30.48Y1.524
X30.988Y82.55
X30.988Y14.224
X30.988Y11.938
X31.115Y75.565
X31.496Y16.51
X32.004Y19.304
X32.067Y40.894
X32.258Y28.194
X32.766Y55.372
X33.528Y62.484
X34.036Y46.482
X34.417Y70.231
X38.862Y82.55
X39.243Y69.215
X41.402Y46.736
X42.672Y41.148
X42.672Y37.846
X42.672Y35.56
X42.926Y32.258
X43.434Y52.07
X44.323Y44.069
X49.276Y82.55
X49.403Y50.165
X50.546Y63.246
X51.054Y66.802
X54.61Y18.034
X54.737Y72.771
X54.991Y28.829
X56.515Y78.613
X57.912Y44.958
X58.166Y56.642
X58.293Y31.623
X59.163Y80.537
X59.69Y68.326
X59.798Y77.07
X69.723Y34.163
X72.263Y48.133
X74.422Y57.658
X79.629Y49.403
X81.407Y37.973
X88.265Y47.117
X90.297Y78.359
X90.297Y63.881
X91.948Y33.274
X92.075Y52.197
X92.202Y79.248
X92.202Y26.416
X92.942Y33.506
X93.472Y29.972
X94.742Y79.248
X97.409Y85.217
X98.171Y79.121
X99.695Y58.547
X104.521Y37.973
X106.299Y49.149
X109.347Y37.973
X110.617Y45.339
X117.221Y40.259
X117.856Y45.212
X118.11Y35.814
X121.285Y85.217
X122.301Y31.877
X123.19Y48.006
X123.19Y38.1
X123.317Y54.991
X123.952Y56.896
X124.841Y87.249
X127.381Y54.229
X131.445Y74.295
X132.002Y59.982
X132.588Y50.546
X132.588Y45.466
X133.096Y40.64
X133.096Y35.56
X133.35Y48.006
X133.35Y38.1
X135.509Y68.707
X135.509Y51.435
X136.271Y56.515
X141.351Y52.705
T3
X6.096Y51.054
X6.096Y48.514
X63.5Y83.82
X63.5Y81.28
X63.5Y78.74
X63.5Y76.2
X63.5Y73.66
X66.04Y83.82
X66.04Y81.28
X66.04Y78.74
X66.04Y76.2
X66.04Y73.66
X66.04Y71.12
X68.58Y83.82
X68.58Y81.28
X68.58Y78.74
X68.58Y76.2
X68.58Y73.66
X68.58Y71.12
X68.58Y68.58
X68.58Y66.04
X68.58Y63.5
X71.12Y83.82
X71.12Y81.28
X71.12Y78.74
X71.12Y76.2
X71.12Y73.66
X71.12Y71.12
X71.12Y68.58
X71.12Y66.04
X71.12Y63.5
X71.12Y60.96
X73.66Y83.82
X73.66Y81.28
X73.66Y78.74
X73.66Y76.2
X73.66Y73.66
X73.66Y71.12
X73.66Y68.58
X73.66Y66.04
X73.66Y63.5
X73.66Y60.96
X76.2Y83.82
X76.2Y81.28
X76.2Y78.74
X76.2Y76.2
X76.2Y73.66
X76.2Y71.12
X76.2Y68.58
X76.2Y66.04
X76.2Y63.5
X76.2Y60.96
X78.74Y83.82
X78.74Y81.28
X78.74Y78.74
X78.74Y76.2
X78.74Y73.66
X78.74Y71.12
X78.74Y68.58
X78.74Y66.04
X78.74Y63.5
X78.74Y60.96
X81.28Y83.82
X81.28Y81.28
X81.28Y78.74
X81.28Y76.2
X81.28Y73.66
X81.28Y71.12
X81.28Y68.58
X81.28Y66.04
X81.28Y63.5
X81.28Y60.96
X83.82Y83.82
X83.82Y81.28
X83.82Y78.74
X83.82Y76.2
X83.82Y73.66
X83.82Y71.12
X83.82Y68.58
X83.82Y66.04
X83.82Y63.5
X83.82Y60.96
X86.36Y83.82
X86.36Y81.28
X86.36Y78.74
X86.36Y76.2
X86.36Y73.66
X86.36Y71.12
X86.36Y68.58
X86.36Y66.04
X86.36Y63.5
X86.36Y60.96
X92.202Y76.708
X92.202Y61.468
X92.71Y54.864
X94.742Y76.708
X94.742Y61.468
X95.25Y54.864
X97.282Y76.708
X97.282Y61.468
X97.79Y54.864
X99.822Y76.708
X99.822Y61.468
X102.362Y83.82
X102.362Y76.708
X102.362Y61.468
X102.362Y54.864
X104.902Y83.82
X104.902Y76.708
X104.902Y61.468
X104.902Y54.864
X107.442Y83.82
X107.442Y76.708
X107.442Y61.468
X107.442Y54.864
X109.982Y83.82
X109.982Y76.708
X109.982Y61.468
X109.982Y54.864
X112.522Y76.708
X112.522Y61.468
X112.522Y54.864
X115.062Y76.708
X115.062Y61.468
X115.062Y54.864
X117.602Y76.708
X117.602Y61.468
X117.602Y54.864
X120.142Y76.708
X120.142Y61.468
X120.142Y54.864
X122.682Y76.708
X122.682Y61.468
X125.222Y76.708
X125.222Y61.468
X127.762Y76.708
X127.762Y61.468
X135.636Y74.422
X135.636Y71.882
X135.636Y64.008
X135.636Y61.468
X138.684Y46.482
X138.684Y43.942
T4
X28.956Y7.366
X42.672Y7.112
X57.15Y7.112
X67.31Y7.112
X77.47Y7.112
X87.63Y7.112
X97.79Y7.112
X107.95Y7.112
X118.11Y7.366
X128.27Y7.366
T5
X26.416Y9.906
X26.416Y4.826
X31.496Y9.906
X31.496Y4.826
X40.132Y9.652
X40.132Y4.572
X45.212Y9.652
X45.212Y4.572
X54.61Y9.652
X54.61Y4.572
X59.69Y9.652
X59.69Y4.572
X64.77Y9.652
X64.77Y4.572
X69.85Y9.652
X69.85Y4.572
X74.93Y9.652
X74.93Y4.572
X80.01Y9.652
X80.01Y4.572
X85.09Y9.652
X85.09Y4.572
X90.17Y9.652
X90.17Y4.572
X95.25Y9.652
X95.25Y4.572
X100.33Y9.652
X100.33Y4.572
X105.41Y9.652
X105.41Y4.572
X110.49Y9.652
X110.49Y4.572
X115.57Y9.906
X115.57Y4.826
X120.65Y9.906
X120.65Y4.826
X125.73Y9.906
X125.73Y4.826
X130.81Y9.906
X130.81Y4.826
T6
X5.08Y81.28
X5.08Y7.62
X139.7Y81.28
X139.7Y5.08
T0
M30
