%TF.GenerationSoftware,KiCad,Pcbnew,5.1.9-73d0e3b20d~88~ubuntu20.04.1*%
%TF.CreationDate,2021-01-15T18:11:00+02:00*%
%TF.ProjectId,gpsdo,67707364-6f2e-46b6-9963-61645f706362,rev?*%
%TF.SameCoordinates,PX3e22018PY7b2cf58*%
%TF.FileFunction,Soldermask,Bot*%
%TF.FilePolarity,Negative*%
%FSLAX46Y46*%
G04 Gerber Fmt 4.6, Leading zero omitted, Abs format (unit mm)*
G04 Created by KiCad (PCBNEW 5.1.9-73d0e3b20d~88~ubuntu20.04.1) date 2021-01-15 18:11:00*
%MOMM*%
%LPD*%
G01*
G04 APERTURE LIST*
%ADD10R,1.700000X1.700000*%
%ADD11C,5.600000*%
%ADD12C,0.508000*%
%ADD13C,2.540000*%
%ADD14O,1.700000X1.700000*%
%ADD15C,2.250000*%
%ADD16C,2.050000*%
%ADD17O,1.600000X1.600000*%
%ADD18R,1.600000X1.600000*%
G04 APERTURE END LIST*
D10*
%TO.C,REF\u002A\u002A*%
X63500000Y73660000D03*
%TD*%
%TO.C,REF\u002A\u002A*%
X63500000Y76200000D03*
%TD*%
%TO.C,REF\u002A\u002A*%
X63500000Y78740000D03*
%TD*%
%TO.C,REF\u002A\u002A*%
X63500000Y81280000D03*
%TD*%
%TO.C,REF\u002A\u002A*%
X63500000Y83820000D03*
%TD*%
%TO.C,REF\u002A\u002A*%
X66040000Y71120000D03*
%TD*%
%TO.C,REF\u002A\u002A*%
X66040000Y73660000D03*
%TD*%
%TO.C,REF\u002A\u002A*%
X66040000Y76200000D03*
%TD*%
%TO.C,REF\u002A\u002A*%
X66040000Y78740000D03*
%TD*%
%TO.C,REF\u002A\u002A*%
X66040000Y81280000D03*
%TD*%
%TO.C,REF\u002A\u002A*%
X66040000Y83820000D03*
%TD*%
%TO.C,REF\u002A\u002A*%
X68580000Y63500000D03*
%TD*%
%TO.C,REF\u002A\u002A*%
X68580000Y66040000D03*
%TD*%
%TO.C,REF\u002A\u002A*%
X68580000Y68580000D03*
%TD*%
%TO.C,REF\u002A\u002A*%
X68580000Y71120000D03*
%TD*%
%TO.C,REF\u002A\u002A*%
X68580000Y73660000D03*
%TD*%
%TO.C,REF\u002A\u002A*%
X68580000Y76200000D03*
%TD*%
%TO.C,REF\u002A\u002A*%
X68580000Y78740000D03*
%TD*%
%TO.C,REF\u002A\u002A*%
X68580000Y81280000D03*
%TD*%
%TO.C,REF\u002A\u002A*%
X68580000Y83820000D03*
%TD*%
%TO.C,REF\u002A\u002A*%
X71120000Y60960000D03*
%TD*%
%TO.C,REF\u002A\u002A*%
X71120000Y63500000D03*
%TD*%
%TO.C,REF\u002A\u002A*%
X71120000Y66040000D03*
%TD*%
%TO.C,REF\u002A\u002A*%
X71120000Y68580000D03*
%TD*%
%TO.C,REF\u002A\u002A*%
X71120000Y71120000D03*
%TD*%
%TO.C,REF\u002A\u002A*%
X71120000Y73660000D03*
%TD*%
%TO.C,REF\u002A\u002A*%
X71120000Y76200000D03*
%TD*%
%TO.C,REF\u002A\u002A*%
X71120000Y78740000D03*
%TD*%
%TO.C,REF\u002A\u002A*%
X71120000Y81280000D03*
%TD*%
%TO.C,REF\u002A\u002A*%
X71120000Y83820000D03*
%TD*%
%TO.C,REF\u002A\u002A*%
X73660000Y60960000D03*
%TD*%
%TO.C,REF\u002A\u002A*%
X73660000Y63500000D03*
%TD*%
%TO.C,REF\u002A\u002A*%
X73660000Y66040000D03*
%TD*%
%TO.C,REF\u002A\u002A*%
X73660000Y68580000D03*
%TD*%
%TO.C,REF\u002A\u002A*%
X73660000Y71120000D03*
%TD*%
%TO.C,REF\u002A\u002A*%
X73660000Y73660000D03*
%TD*%
%TO.C,REF\u002A\u002A*%
X73660000Y76200000D03*
%TD*%
%TO.C,REF\u002A\u002A*%
X73660000Y78740000D03*
%TD*%
%TO.C,REF\u002A\u002A*%
X73660000Y81280000D03*
%TD*%
%TO.C,REF\u002A\u002A*%
X73660000Y83820000D03*
%TD*%
%TO.C,REF\u002A\u002A*%
X76200000Y60960000D03*
%TD*%
%TO.C,REF\u002A\u002A*%
X76200000Y63500000D03*
%TD*%
%TO.C,REF\u002A\u002A*%
X76200000Y66040000D03*
%TD*%
%TO.C,REF\u002A\u002A*%
X76200000Y68580000D03*
%TD*%
%TO.C,REF\u002A\u002A*%
X76200000Y71120000D03*
%TD*%
%TO.C,REF\u002A\u002A*%
X76200000Y73660000D03*
%TD*%
%TO.C,REF\u002A\u002A*%
X76200000Y76200000D03*
%TD*%
%TO.C,REF\u002A\u002A*%
X76200000Y78740000D03*
%TD*%
%TO.C,REF\u002A\u002A*%
X76200000Y81280000D03*
%TD*%
%TO.C,REF\u002A\u002A*%
X76200000Y83820000D03*
%TD*%
%TO.C,REF\u002A\u002A*%
X78740000Y60960000D03*
%TD*%
%TO.C,REF\u002A\u002A*%
X78740000Y63500000D03*
%TD*%
%TO.C,REF\u002A\u002A*%
X78740000Y66040000D03*
%TD*%
%TO.C,REF\u002A\u002A*%
X78740000Y68580000D03*
%TD*%
%TO.C,REF\u002A\u002A*%
X78740000Y71120000D03*
%TD*%
%TO.C,REF\u002A\u002A*%
X78740000Y73660000D03*
%TD*%
%TO.C,REF\u002A\u002A*%
X78740000Y76200000D03*
%TD*%
%TO.C,REF\u002A\u002A*%
X78740000Y78740000D03*
%TD*%
%TO.C,REF\u002A\u002A*%
X78740000Y81280000D03*
%TD*%
%TO.C,REF\u002A\u002A*%
X78740000Y83820000D03*
%TD*%
%TO.C,REF\u002A\u002A*%
X81280000Y60960000D03*
%TD*%
%TO.C,REF\u002A\u002A*%
X81280000Y63500000D03*
%TD*%
%TO.C,REF\u002A\u002A*%
X81280000Y66040000D03*
%TD*%
%TO.C,REF\u002A\u002A*%
X81280000Y68580000D03*
%TD*%
%TO.C,REF\u002A\u002A*%
X81280000Y71120000D03*
%TD*%
%TO.C,REF\u002A\u002A*%
X81280000Y73660000D03*
%TD*%
%TO.C,REF\u002A\u002A*%
X81280000Y76200000D03*
%TD*%
%TO.C,REF\u002A\u002A*%
X81280000Y78740000D03*
%TD*%
%TO.C,REF\u002A\u002A*%
X81280000Y81280000D03*
%TD*%
%TO.C,REF\u002A\u002A*%
X81280000Y83820000D03*
%TD*%
%TO.C,REF\u002A\u002A*%
X83820000Y60960000D03*
%TD*%
%TO.C,REF\u002A\u002A*%
X83820000Y63500000D03*
%TD*%
%TO.C,REF\u002A\u002A*%
X83820000Y66040000D03*
%TD*%
%TO.C,REF\u002A\u002A*%
X83820000Y68580000D03*
%TD*%
%TO.C,REF\u002A\u002A*%
X83820000Y71120000D03*
%TD*%
%TO.C,REF\u002A\u002A*%
X83820000Y73660000D03*
%TD*%
%TO.C,REF\u002A\u002A*%
X83820000Y76200000D03*
%TD*%
%TO.C,REF\u002A\u002A*%
X83820000Y78740000D03*
%TD*%
%TO.C,REF\u002A\u002A*%
X83820000Y81280000D03*
%TD*%
%TO.C,REF\u002A\u002A*%
X83820000Y83820000D03*
%TD*%
%TO.C,REF\u002A\u002A*%
X86360000Y60960000D03*
%TD*%
%TO.C,REF\u002A\u002A*%
X86360000Y63500000D03*
%TD*%
%TO.C,REF\u002A\u002A*%
X86360000Y66040000D03*
%TD*%
%TO.C,REF\u002A\u002A*%
X86360000Y68580000D03*
%TD*%
%TO.C,REF\u002A\u002A*%
X86360000Y71120000D03*
%TD*%
%TO.C,REF\u002A\u002A*%
X86360000Y73660000D03*
%TD*%
%TO.C,REF\u002A\u002A*%
X86360000Y76200000D03*
%TD*%
%TO.C,REF\u002A\u002A*%
X86360000Y78740000D03*
%TD*%
%TO.C,REF\u002A\u002A*%
X86360000Y81280000D03*
%TD*%
%TO.C,REF\u002A\u002A*%
X86360000Y83820000D03*
%TD*%
D11*
%TO.C,H4*%
X139700000Y81280000D03*
%TD*%
%TO.C,H3*%
X5080000Y81280000D03*
%TD*%
%TO.C,H2*%
X139700000Y5080000D03*
%TD*%
%TO.C,H1*%
X5080000Y7620000D03*
%TD*%
D12*
%TO.C,U20*%
X116332000Y22606000D03*
X114046000Y21590000D03*
X116332000Y20574000D03*
X119888000Y22606000D03*
X122174000Y21590000D03*
X119888000Y20574000D03*
D13*
X118110000Y21590000D03*
%TD*%
D12*
%TO.C,U19*%
X96012000Y22606000D03*
X93726000Y21590000D03*
X96012000Y20574000D03*
X99568000Y22606000D03*
X101854000Y21590000D03*
X99568000Y20574000D03*
D13*
X97790000Y21590000D03*
%TD*%
D12*
%TO.C,U18*%
X75692000Y22606000D03*
X73406000Y21590000D03*
X75692000Y20574000D03*
X79248000Y22606000D03*
X81534000Y21590000D03*
X79248000Y20574000D03*
D13*
X77470000Y21590000D03*
%TD*%
D12*
%TO.C,U17*%
X55372000Y22606000D03*
X53086000Y21590000D03*
X55372000Y20574000D03*
X58928000Y22606000D03*
X61214000Y21590000D03*
X58928000Y20574000D03*
D13*
X57150000Y21590000D03*
%TD*%
D12*
%TO.C,U16*%
X36068000Y22606000D03*
X33782000Y21590000D03*
X36068000Y20574000D03*
X39624000Y22606000D03*
X41910000Y21590000D03*
X39624000Y20574000D03*
D13*
X37846000Y21590000D03*
%TD*%
D12*
%TO.C,U15*%
X97028000Y36576000D03*
X98044000Y34290000D03*
X99060000Y36576000D03*
X97028000Y40132000D03*
X98044000Y42418000D03*
X99060000Y40132000D03*
D13*
X98044000Y38354000D03*
%TD*%
D12*
%TO.C,U14*%
X87884000Y40132000D03*
X86868000Y42418000D03*
X85852000Y40132000D03*
X87884000Y36576000D03*
X86868000Y34290000D03*
X85852000Y36576000D03*
D13*
X86868000Y38354000D03*
%TD*%
D12*
%TO.C,U13*%
X126492000Y22606000D03*
X124206000Y21590000D03*
X126492000Y20574000D03*
X130048000Y22606000D03*
X132334000Y21590000D03*
X130048000Y20574000D03*
D13*
X128270000Y21590000D03*
%TD*%
D12*
%TO.C,U12*%
X106172000Y22606000D03*
X103886000Y21590000D03*
X106172000Y20574000D03*
X109728000Y22606000D03*
X112014000Y21590000D03*
X109728000Y20574000D03*
D13*
X107950000Y21590000D03*
%TD*%
D12*
%TO.C,U11*%
X85852000Y22606000D03*
X83566000Y21590000D03*
X85852000Y20574000D03*
X89408000Y22606000D03*
X91694000Y21590000D03*
X89408000Y20574000D03*
D13*
X87630000Y21590000D03*
%TD*%
D12*
%TO.C,U10*%
X65532000Y22606000D03*
X63246000Y21590000D03*
X65532000Y20574000D03*
X69088000Y22606000D03*
X71374000Y21590000D03*
X69088000Y20574000D03*
D13*
X67310000Y21590000D03*
%TD*%
D14*
%TO.C,J17*%
X6096000Y51054000D03*
D10*
X6096000Y48514000D03*
%TD*%
D14*
%TO.C,J16*%
X135636000Y71882000D03*
D10*
X135636000Y74422000D03*
%TD*%
D15*
%TO.C,J15*%
X120650000Y4826000D03*
X115570000Y4826000D03*
X115570000Y9906000D03*
X120650000Y9906000D03*
D16*
X118110000Y7366000D03*
%TD*%
D15*
%TO.C,J14*%
X100330000Y4572000D03*
X95250000Y4572000D03*
X95250000Y9652000D03*
X100330000Y9652000D03*
D16*
X97790000Y7112000D03*
%TD*%
D15*
%TO.C,J13*%
X80010000Y4572000D03*
X74930000Y4572000D03*
X74930000Y9652000D03*
X80010000Y9652000D03*
D16*
X77470000Y7112000D03*
%TD*%
D15*
%TO.C,J12*%
X59690000Y4572000D03*
X54610000Y4572000D03*
X54610000Y9652000D03*
X59690000Y9652000D03*
D16*
X57150000Y7112000D03*
%TD*%
D15*
%TO.C,J11*%
X45212000Y4572000D03*
X40132000Y4572000D03*
X40132000Y9652000D03*
X45212000Y9652000D03*
D16*
X42672000Y7112000D03*
%TD*%
D15*
%TO.C,J10*%
X130810000Y4826000D03*
X125730000Y4826000D03*
X125730000Y9906000D03*
X130810000Y9906000D03*
D16*
X128270000Y7366000D03*
%TD*%
D15*
%TO.C,J9*%
X110490000Y4572000D03*
X105410000Y4572000D03*
X105410000Y9652000D03*
X110490000Y9652000D03*
D16*
X107950000Y7112000D03*
%TD*%
D15*
%TO.C,J8*%
X90170000Y4572000D03*
X85090000Y4572000D03*
X85090000Y9652000D03*
X90170000Y9652000D03*
D16*
X87630000Y7112000D03*
%TD*%
D15*
%TO.C,J7*%
X69850000Y4572000D03*
X64770000Y4572000D03*
X64770000Y9652000D03*
X69850000Y9652000D03*
D16*
X67310000Y7112000D03*
%TD*%
D15*
%TO.C,J6*%
X31496000Y9906000D03*
X31496000Y4826000D03*
X26416000Y4826000D03*
X26416000Y9906000D03*
D16*
X28956000Y7366000D03*
%TD*%
D14*
%TO.C,J5*%
X138684000Y43942000D03*
D10*
X138684000Y46482000D03*
%TD*%
D14*
%TO.C,J4*%
X120142000Y54864000D03*
X117602000Y54864000D03*
X115062000Y54864000D03*
X112522000Y54864000D03*
X109982000Y54864000D03*
X107442000Y54864000D03*
X104902000Y54864000D03*
D10*
X102362000Y54864000D03*
%TD*%
D14*
%TO.C,J3*%
X135636000Y64008000D03*
D10*
X135636000Y61468000D03*
%TD*%
D14*
%TO.C,J2*%
X92710000Y54864000D03*
X95250000Y54864000D03*
D10*
X97790000Y54864000D03*
%TD*%
D14*
%TO.C,J1*%
X109982000Y83820000D03*
X107442000Y83820000D03*
X104902000Y83820000D03*
D10*
X102362000Y83820000D03*
%TD*%
D17*
%TO.C,A1*%
X127762000Y76708000D03*
X127762000Y61468000D03*
X92202000Y76708000D03*
X125222000Y61468000D03*
X94742000Y76708000D03*
X122682000Y61468000D03*
X97282000Y76708000D03*
X120142000Y61468000D03*
X99822000Y76708000D03*
X117602000Y61468000D03*
X102362000Y76708000D03*
X115062000Y61468000D03*
X104902000Y76708000D03*
X112522000Y61468000D03*
X107442000Y76708000D03*
X109982000Y61468000D03*
X109982000Y76708000D03*
X107442000Y61468000D03*
X112522000Y76708000D03*
X104902000Y61468000D03*
X115062000Y76708000D03*
X102362000Y61468000D03*
X117602000Y76708000D03*
X99822000Y61468000D03*
X120142000Y76708000D03*
X97282000Y61468000D03*
X122682000Y76708000D03*
X94742000Y61468000D03*
X125222000Y76708000D03*
D18*
X92202000Y61468000D03*
%TD*%
M02*
